<svg width="118" height="30" viewBox="0 0 118 30" fill="none" xmlns="http://www.w3.org/2000/svg">
<path d="M12.0802 24.8352C13.764 25.9893 15.4098 26.4426 17.2588 25.9604C20.0101 25.2419 22.1962 22.384 22.2739 19.6114C22.3416 17.1762 20.5487 15.2072 18.3824 14.4453C17.3159 14.0821 16.2047 13.8578 15.0776 13.7783C16.2343 9.95603 18.5659 7.0628 21.489 4.59874C24.4121 2.13467 27.7301 0.323194 31.7851 0.0129759C31.9504 -0.00149018 31.9504 0.00494156 31.9619 0.115849C31.9751 0.331233 31.9884 0.496789 31.9884 0.662346C31.9884 5.2031 32.0214 9.74386 31.9768 14.2846C31.957 16.4577 31.8281 18.8623 30.8978 20.8747C28.6538 25.7257 24.693 28.3393 19.3673 29.2683C17.2135 29.6694 14.9855 29.4273 12.9758 28.5739C10.3071 27.4343 8.45974 24.6311 8.61671 21.9758C8.73899 19.9039 10.1551 18.2789 12.143 17.9445C13.6186 17.6938 15.2957 18.5698 15.9154 19.9168C16.5053 21.2026 16.122 22.7039 14.7951 23.649C14.3151 24.0287 13.7672 24.3192 13.179 24.5057C12.9411 24.5877 12.5461 24.6986 12.0802 24.8352Z" fill="#9AC124"/>
<path d="M9.76843 29.9546C7.77232 29.1975 5.06238 27.2494 3.57025 25.3833C1.29654 22.5383 0.172904 19.2561 0.0803697 15.7071C-0.0501705 10.7082 0.0225352 5.70455 0.00270631 0.702482C0.00270631 0.0595435 -0.0485203 0.0836541 0.547999 0.130267C5.4193 0.496742 9.66433 2.14106 12.8419 5.90868C13.3465 6.47739 13.7895 7.0952 14.1638 7.7523C13.2947 8.28916 12.4916 8.74082 11.7364 9.26C7.47819 12.1789 5.0789 15.9884 5.0128 21.0981C4.99355 22.633 5.32979 24.1525 5.99658 25.5437C6.66336 26.935 7.64359 28.1624 8.86456 29.1348C8.94388 29.1975 9.30741 29.4933 9.39829 29.5399C9.76843 29.7312 9.80809 29.8228 10.0675 29.9273C10.2047 29.9819 10.0047 30.0446 9.76843 29.9546Z" fill="#E84026"/>
<path d="M21.9864 17.8513C22.375 16.8548 22.6962 15.8346 22.9481 14.7974C23.571 12.3349 24.8566 7.65431 26.8031 5.01183C28.7497 2.36935 31.3935 0.440534 31.3935 0.440534L31.9603 0.0885241C31.9603 0.069236 31.9603 0.0515542 31.9603 0.032266C31.9603 0.0129779 31.9603 -0.00148533 31.9256 0.000122018C27.8078 0.2798 24.4683 2.08967 21.4923 4.59553C18.5593 7.06441 16.2459 9.95763 15.0776 13.7799C16.2047 13.8594 17.3159 14.0837 18.3825 14.447C19.9952 15.0144 21.4014 16.2504 21.9864 17.8513Z" fill="#E84026"/>
<path d="M13.7673 26.8411C14.2261 26.6256 14.6679 26.3773 15.0892 26.0985C14.0663 25.9554 13.0799 25.5199 12.0802 24.8351C12.5461 24.6985 12.9344 24.5876 13.179 24.5137C13.7672 24.3271 14.3151 24.0367 14.7951 23.6569C16.117 22.7118 16.5053 21.2122 15.9154 19.9247C15.2957 18.5777 13.6185 17.7017 12.1429 17.9525C10.1601 18.2916 8.73899 19.9118 8.61671 21.9837C8.49112 24.107 9.64947 26.3235 11.482 27.7107C12.2678 27.4845 13.0323 27.1936 13.7673 26.8411V26.8411Z" fill="#E84026"/>
<path d="M26.6204 17.054C23.3156 19.8396 21.0385 24.3755 19.4225 25.6983C17.8064 27.0212 15.3328 27.5195 14.1645 27.6625C13.4556 27.7493 12.3766 27.7959 11.6396 27.8233C12.0554 28.122 12.5037 28.3753 12.9764 28.5787C14.9861 29.4321 17.2142 29.6742 19.368 29.2731C24.6937 28.344 28.6545 25.7369 30.8985 20.8795C31.7594 19.015 31.9345 16.8113 31.9709 14.7716C30.872 14.8102 28.8379 15.1847 26.6204 17.054Z" fill="#FDCB00"/>
<path d="M6.87348 1.5448C5.68374 3.19715 2.16412 8.49657 1.57586 14.1962C0.977687 19.9923 3.33898 24.2695 4.21971 25.34C5.10044 26.4105 5.98283 27.5083 6.74129 28.0548C7.74765 28.743 8.79611 29.371 9.88086 29.9354C9.99488 29.9884 10.1733 29.9997 10.0907 29.9354C10.0651 29.92 10.0386 29.906 10.0114 29.8936C9.79143 29.7748 9.57999 29.6416 9.37853 29.495C9.18024 29.3632 8.94064 29.1896 8.86132 29.1253C7.64039 28.1531 6.66016 26.926 5.99337 25.535C5.32657 24.144 4.99032 22.6248 5.00956 21.0901C5.07566 15.9788 7.47495 12.1694 11.7332 9.25042C12.4884 8.73286 13.2914 8.28601 14.1606 7.74434C13.7866 7.08652 13.3436 6.46814 12.8387 5.8991C11.2475 3.99371 9.19893 2.49833 6.87348 1.5448V1.5448Z" fill="#00A8EB"/>
<path d="M46.3433 8.99992C46.1807 9.19527 45.6127 9.22707 45.3543 9.22707C44.7222 9.24997 44.0918 9.14656 43.4986 8.92268C42.0507 8.42748 41.6229 7.1713 42.3425 5.78338C43.806 2.9621 49.3262 2.01714 51.5917 4.20919C52.4092 4.99969 52.8258 5.96965 52.7768 7.42118C52.7233 9.01127 52.3157 10.1471 51.9414 11.8257C51.5312 13.5907 51.2166 15.3773 50.9991 17.1775C50.8098 18.8653 51.7499 19.6331 53.3961 19.3083C54.2425 19.0837 55.0399 18.6984 55.7463 18.1725C55.7351 17.7863 55.7329 17.7 55.7173 16.7141C55.5502 13.7611 55.5881 10.8081 56.3589 7.9232C56.5787 7.13481 56.8819 6.37314 57.2633 5.65164C57.5223 5.18308 57.8707 4.77218 58.288 4.44317C58.5937 4.18906 58.9638 4.02855 59.3553 3.9803C59.7469 3.93205 60.1438 3.99803 60.5001 4.17058C61.2374 4.49314 61.4669 5.20641 61.4424 5.93331C61.406 6.92156 61.2875 7.90488 61.0882 8.87271C60.235 12.6844 59.0833 15.8146 57.9695 17.1957C57.9895 18.0884 58.6489 19.5172 59.932 19.4673C61.2151 19.4173 62.4626 18.6495 63.3559 17.7704C63.3559 17.5274 63.3359 16.8777 63.3114 16.5051C63.1242 13.6861 63.1309 11.2147 63.7725 8.46156C63.9796 7.44662 64.3427 6.47143 64.8484 5.57213C65.1421 5.06318 65.5421 4.62651 66.0202 4.29324C67.4615 3.28921 69.0075 4.13423 69.0966 5.89923C69.1112 6.58025 69.0363 7.2602 68.8738 7.92093C68.2389 10.8422 67.3144 14.2359 65.5323 16.5756C65.5613 17.5796 65.96 18.863 66.782 19.3423C67.4838 19.7512 68.9339 19.1901 69.4218 18.3542C69.4329 18.0657 69.473 17.6137 69.502 17.3388C69.5464 16.668 69.6297 16.0006 69.7515 15.3398C69.7743 15.2136 69.8228 15.0935 69.8937 14.9875C69.9647 14.8814 70.0565 14.7916 70.1635 14.7238C70.2704 14.656 70.3901 14.6117 70.5148 14.5938C70.6395 14.5759 70.7665 14.5847 70.8876 14.6198C71.4623 14.7538 71.4155 15.2535 71.3576 15.7555C71.2507 16.6528 71.0302 17.2434 71.068 18.4292C71.068 18.7631 71.3264 19.4264 71.8834 19.4196C72.1534 19.4141 72.4127 19.3108 72.6148 19.128C72.8169 18.9453 72.9485 18.6951 72.986 18.4223C72.8431 18.4987 72.6845 18.5398 72.5232 18.5421C72.3618 18.5445 72.2022 18.5081 72.0571 18.436C71.7631 18.2088 71.7051 18.0498 71.7987 17.6091C71.8874 17.3521 72.0538 17.1304 72.274 16.9761C72.4942 16.8218 72.7568 16.7428 73.0239 16.7505C73.5786 16.7709 74.0553 17.2684 73.8771 17.8499C74.2054 17.813 74.5241 17.7145 74.8172 17.5592C74.8149 16.9336 74.8648 16.3089 74.9664 15.6919C75.0711 15.2376 75.3496 14.6856 75.9622 14.8446C76.4768 14.9787 76.6305 15.4466 76.5503 16.0577C76.4675 16.7312 76.4303 17.4097 76.4389 18.0884C76.4389 18.57 76.4077 19.3105 77.0626 19.3014C77.4413 19.3014 77.8356 18.6495 78.1765 18.2861C78.1547 18.059 78.1607 17.8301 78.1943 17.6046C78.27 17.2048 78.6398 16.7641 78.9294 16.8232C79.3504 16.8777 79.0564 18.0521 79.3928 17.6591C79.8383 17.1276 79.9987 16.2258 80.4509 15.4602C80.5558 15.2505 80.7192 15.077 80.9206 14.9618C81.122 14.8466 81.3523 14.7948 81.5826 14.8128C81.9212 14.8492 82.1773 15.2671 82.2999 15.8623C82.4046 16.3757 82.3645 17.0685 82.3667 17.7977C82.3667 18.1679 82.5694 18.7449 82.9436 18.8153C83.3179 18.8857 83.7367 18.2633 83.8458 17.9453C84.0686 17.2888 84.1288 16.5688 84.2379 15.8737C84.3159 15.3807 84.601 14.7379 85.129 14.7947C85.7973 14.8583 85.8708 15.4761 85.8151 16.1576C85.7417 16.8857 85.7149 17.618 85.7349 18.3497C85.746 18.6927 85.9577 19.1992 86.2227 19.3173C86.4878 19.4355 87.0269 19.2651 87.2653 19.0652C87.6338 18.7729 87.9375 18.4044 88.1563 17.9839C88.1475 17.2026 88.1915 16.4217 88.2878 15.6465C88.388 15.0718 88.7734 14.7265 89.0741 14.6856C89.6734 14.6038 89.6511 15.1649 89.6088 15.6692C89.5665 16.1735 89.5687 16.83 89.5687 17.5205C89.9964 17.1844 90.3907 16.4529 90.805 15.9305C91.1942 15.3952 91.7153 14.9744 92.3154 14.7106C93.0082 14.4517 93.6787 15.0991 93.5784 15.8464C93.5199 16.3959 93.3176 16.9192 92.9926 17.3615C92.9213 17.466 92.4847 17.859 92.2174 17.6546C92.1463 17.5973 92.0962 17.5173 92.0752 17.4274C92.0542 17.3376 92.0635 17.2432 92.1015 17.1594C92.204 16.8209 92.547 16.5619 92.224 16.3848C92.0013 16.2598 91.6226 16.4779 91.3753 16.7982C91.2617 16.9436 90.9565 17.3456 90.8719 17.4547C91.6961 17.6636 91.9055 18.1906 92.2998 18.6381C92.7564 19.1561 93.0795 19.5831 93.7923 19.3878C94.2248 19.3069 94.6175 19.0786 94.9061 18.7404C94.7836 17.4638 94.8415 15.7873 96.1848 14.8446C96.96 14.2631 97.8956 14.3085 98.3479 14.8265C98.8001 15.3444 98.6753 16.3575 97.9847 17.0412C97.5548 17.4637 96.8954 17.7227 96.3496 17.993C96.6793 19.1288 97.4635 19.4922 98.2788 19.356C99.1921 19.2128 99.4283 18.7176 99.8381 18.1225C99.8003 16.9867 99.8047 16.0781 99.9696 15.3716C100.027 15.1263 100.17 14.5471 100.665 14.5743C100.831 14.5813 100.991 14.6443 101.12 14.7536C101.248 14.8629 101.337 15.0123 101.373 15.1786C101.458 15.592 101.306 16.3984 101.308 17.0708C102.015 16.9572 102.928 16.8777 103.469 16.6687C103.472 16.3391 103.494 16.0099 103.534 15.6828C103.61 15.1627 103.808 14.6652 104.376 14.7174C105.044 14.7878 105.363 15.4193 105.307 16.0804C105.245 16.8164 105.084 17.6205 105.12 18.3519C105.136 18.7176 105.309 19.2606 105.73 19.3196C105.925 19.3211 106.117 19.2815 106.296 19.2033C106.475 19.1251 106.635 19.01 106.768 18.8653C107.314 18.3519 107.588 18.0589 107.602 17.4865C107.666 15.0195 107.573 11.4873 107.557 9.01809C107.285 9.01809 107.192 9.01809 106.666 9.01809C103.993 8.99311 101.565 8.9295 98.8981 8.94086C97.7263 8.94086 96.7751 9.52238 96.0021 10.4196C95.5009 10.9943 95.2581 10.9353 94.9373 10.2379C94.2356 8.70462 94.9373 7.3394 96.5858 7.30533C98.7199 7.26217 100.754 7.56883 102.886 7.74374C104.403 7.8664 105.991 8.12536 107.55 8.34116C107.557 7.8598 107.624 7.38129 107.749 6.9169C108.025 5.94922 108.53 5.53805 109.504 5.49944C112.177 5.39494 114.899 6.35582 117.205 8.24803C117.499 8.48882 118.096 9.12713 117.987 9.57008C117.844 10.1561 117.172 10.331 116.799 10.3856C115.149 10.6127 113.705 10.1902 111.885 9.89491C110.878 9.73136 110.005 9.52465 108.907 9.30204C108.907 9.67458 108.896 9.94943 108.907 10.2107C109.074 13.7543 109.221 17.3002 109.426 20.8416C109.52 22.4953 109.203 23.815 107.813 24.7804C107.59 24.9372 107.011 25.1734 106.844 25.0076C106.637 24.8032 106.788 24.4738 106.882 24.2194C107.506 22.5134 107.521 20.7393 107.597 18.6745C106.744 19.6467 106.004 20.3668 104.841 20.1237C103.592 19.8648 103.393 18.8767 103.396 17.6954C102.801 17.8817 102.028 18.0861 101.451 18.2043C101.467 18.4314 101.475 18.6586 101.498 18.8358C101.582 19.5922 101.645 20.1306 100.856 20.1987C100.428 20.2419 100.065 20.0533 99.876 18.8517C99.0161 19.8784 98.0939 20.4418 97.087 20.4009C96.0801 20.36 95.6724 19.9874 95.1155 19.1561C94.7495 19.4525 94.368 19.7285 93.9727 19.9829C92.8857 20.594 91.6203 20.2691 90.5845 19.1197C90.4441 18.9652 90.2949 18.5018 90.0989 18.4905C89.8427 18.4723 89.6533 19.022 89.6533 19.172C89.6533 19.8534 89.4863 20.26 88.789 20.2737C88.3011 20.2737 88.1452 19.7421 88.1029 18.9516C87.0069 19.9784 86.5769 20.2737 85.7928 20.2987C85.0087 20.3236 84.5498 19.8648 84.1421 18.4473C83.9852 18.8548 83.7589 19.2308 83.4738 19.5581C82.9303 20.0533 82.6496 20.1987 82.1796 20.2055C81.6093 20.2055 81.2083 19.5104 81.0657 18.9062C80.9343 18.3451 81.1125 16.328 80.5935 17.1684C80.3083 17.6228 80.1925 18.1838 79.9742 18.6813C79.9051 18.8358 79.4752 20.1169 79.043 20.2305C78.6732 20.3282 78.3458 19.9102 78.27 18.888C77.8111 19.5513 77.1339 20.3577 76.127 20.2146C75.0578 20.0601 74.8417 19.2719 74.7481 18.1429C74.3204 18.4133 73.9573 18.2225 73.8348 18.5155C72.9615 20.5849 70.6715 20.787 69.5421 19.2469C66.5815 21.5344 64.5076 20.9302 63.5854 18.7131C63.2836 18.9458 62.9649 19.1547 62.6319 19.3378C61.6985 19.7648 60.7741 20.2668 59.7939 20.5326C58.0786 20.9869 57.143 20.5849 56.0648 19.1061L55.3965 19.5354C54.2069 20.3168 52.9283 20.8461 51.4981 20.9097C49.7984 20.9847 48.5487 20.1351 48.3794 18.411C48.2572 16.8928 48.3359 15.3647 48.6133 13.8679C48.8851 12.2528 49.4665 10.6877 49.8497 9.09759C50.0675 8.22032 50.2187 7.32722 50.3019 6.42624C50.44 4.79071 49.5534 3.86165 47.9294 3.85029C47.2293 3.84136 46.5424 4.0453 45.9563 4.43613C45.3703 4.82695 44.9118 5.38692 44.6392 6.04462C44.1335 7.33032 44.4877 8.10265 45.782 8.54333C45.958 8.60466 46.1295 8.68417 46.3032 8.75686C46.4458 8.88407 46.3946 8.93859 46.3433 8.99992ZM115.078 8.84091C115.374 8.73869 115.928 8.4979 115.969 8.15944C116.009 7.82098 115.503 7.51659 115.222 7.35076C113.873 6.54821 112.343 6.11473 110.78 6.09232C110.42 6.08977 110.063 6.14968 109.722 6.2695C108.874 6.5648 108.831 7.2917 108.816 8.07084C108.816 8.298 108.816 8.35479 108.816 8.60012C109.742 8.76595 113.146 9.50647 115.078 8.84091ZM57.8269 15.8827C58.2396 15.3237 58.5802 14.713 58.8405 14.0655C59.3624 12.6488 59.7437 11.1824 59.9788 9.68819C60.2016 8.41385 60.411 7.27354 60.5223 6.17864C60.5491 5.89924 60.46 5.28819 60.1681 5.22686C59.8763 5.16553 59.4063 5.57441 59.1947 6.14911C58.0831 9.18392 57.8358 12.9161 57.8358 15.8827H57.8269ZM65.5368 15.2013C65.8683 14.8079 66.1292 14.3581 66.3076 13.8724C67.232 11.3283 67.4414 10.6786 67.9894 8.14581C68.2991 6.72154 68.3548 5.16779 67.8179 5.0792C67.4548 5.02014 66.909 5.81519 66.7397 6.24679C65.6727 8.99538 65.7261 12.3141 65.5457 15.2013H65.5368ZM96.2071 17.3547C96.9422 17.1866 97.3877 16.7482 97.4523 16.0667C97.4724 15.8646 97.4523 15.2603 96.9912 15.2104C96.715 15.1786 96.3229 15.4966 96.2071 15.9327C96.0964 16.4004 96.0995 16.8885 96.216 17.3547H96.2071Z" fill="#202020"/>
<path d="M70.0068 23.0087C66.4961 22.8247 63.1791 23.6902 59.9156 24.9713C57.6055 25.8799 55.2642 26.8567 52.7514 26.9885C51.0629 27.0771 49.508 26.6614 48.1603 25.5347C47.3583 24.8532 46.7635 24.074 46.6009 23.02C46.5497 22.7202 46.4405 22.1773 46.7346 21.9706C46.9261 21.8366 47.0242 22.1046 47.1489 22.225C48.9756 23.9718 51.5663 24.5556 54.2195 24.2444C58.0065 23.7901 59.8621 23.0655 62.6712 22.6975C64.7273 22.4272 66.2688 22.4113 68.3472 22.3613C68.7794 22.3613 69.9066 22.4544 70.1294 22.7838C70.1672 22.8565 70.1271 23.0155 70.0068 23.0087Z" fill="#202020"/>
</svg>
